<?xml version="1.0" encoding="UTF-8"?>
<!DOCTYPE svg PUBLIC "-//W3C//DTD SVG 1.1//EN" "http://www.w3.org/Graphics/SVG/1.1/DTD/svg11.dtd">
<svg version="1.1" xmlns="http://www.w3.org/2000/svg" xmlns:xlink="http://www.w3.org/1999/xlink" x="0" y="0" width="1024" height="1103" viewBox="0, 0, 1024, 1103">
  <g id="Layer_3"/>
  <g id="Layer_2">
    <g>
      <path d="M0,685.356 C0,685.356 35.542,647 42.587,630.562 C49.632,614.124 66.853,565.591 66.853,553.067 C66.853,540.543 59.025,493.576 67.636,489.662 C76.246,485.748 94.25,479.486 97.381,472.441 C100.512,465.396 109.906,465.396 117.733,466.179 C125.561,466.962 134.955,461.482 152.176,454.437 C169.397,447.392 196.011,429.389 199.925,420.778 C203.122,413.743 227.436,416.116 252.603,413.781 C309.19,408.531 241.303,326.613 268.745,352.441 C272.043,355.545 516.974,325.589 526.213,327.42 C571.966,336.489 439.11,433.659 468.417,412.168 C503.642,386.336 678.2,251.699 680.549,229.781 C682.897,207.863 664.11,306.594 656.283,338.637 C648.455,370.681 682.897,387.902 688.377,401.992 C693.856,416.081 749.612,418.466 744.247,445.202 C742.449,454.158 736.073,479.441 744.273,492.346 C758.582,514.866 752.172,549.254 706.139,567.94 C692.718,573.388 711.112,636.041 721.253,658.742 C731.394,681.442 812.838,804.502 811.272,827.821 C809.707,851.14 718.905,1103 718.905,1103 L484.855,1103 C484.855,1103 384.66,825.473 404.229,765.199 C423.799,704.925 338.476,591.423 327.517,585.944 C316.558,580.464 295.423,558.547 302.468,569.505 C309.513,580.464 313.427,607.861 311.079,608.644 C308.731,609.427 286.813,621.951 274.288,614.124 C261.764,606.296 250.022,636.041 245.326,647 C240.629,657.959 214.798,717.45 138.086,730.757 C61.374,744.064 63.722,823.907 81.726,827.821 C99.73,831.735 135.737,829.387 135.737,834.083 C135.737,838.78 109.123,913.144 72.333,949.934 C35.542,986.725 0,985.942 0,985.942 L0,685.356 z" fill="#DCD4C0"/>
      <path d="M589.707,27.242 C589.707,27.242 610.654,136.444 612.527,144.561 C614.4,152.678 620.644,160.171 623.141,171.41 C625.639,182.649 626.263,187.644 626.263,190.141 C626.263,192.639 624.39,195.137 626.263,197.01 C628.137,198.883 631.883,203.254 635.629,206.376 C639.376,209.498 641.249,213.244 642.498,215.117 C643.746,216.99 648.117,216.366 649.366,216.366 C650.615,216.366 656.234,213.868 654.361,209.498 C652.488,205.127 654.361,207 659.98,205.751 C665.6,204.502 664.976,202.005 668.722,198.883 C672.468,195.761 696.195,178.902 696.195,173.907 C696.195,168.912 699.941,167.039 703.063,166.415 C706.185,165.79 723.668,171.41 725.541,188.893 C727.415,206.376 742.4,294.415 715.551,338.122 C688.702,381.829 574.439,468.62 523.863,489.224 C478.599,507.666 385.432,535.011 338.959,535.715 C333.507,535.797 325.932,537.302 339.044,563.527 C340.533,566.506 319.45,543.645 316.566,542.298 C310.116,539.284 304.078,524.815 304.078,524.815 C304.078,524.815 299.707,515.449 287.844,507.956 C275.98,500.463 278.478,501.088 273.483,494.22 C268.488,487.351 263.493,482.356 255.376,479.859 C247.259,477.361 246.634,468.62 240.39,465.498 C235.651,463.128 249.132,462.376 255.376,467.995 C261.62,473.615 266.615,474.239 270.361,478.61 C274.107,482.98 279.727,489.849 283.473,491.722 C297.834,502.961 311.125,499.413 317.19,496.717 C322.81,494.22 322.81,487.976 319.063,482.356 C315.317,476.737 309.073,473.615 301.58,472.366 C294.088,471.117 296.585,473.615 287.844,466.746 C279.102,459.878 278.478,458.005 265.366,454.259 C252.254,450.512 232.273,448.015 225.405,449.263 C218.537,450.512 221.659,457.38 212.917,450.512 C204.176,443.644 208.546,439.273 199.18,441.771 C189.815,444.268 192.312,441.146 183.571,444.893 C174.829,448.639 151.102,469.868 142.985,471.741 C134.868,473.615 134.868,476.737 128,475.488 C121.132,474.239 99.902,478.61 93.659,484.229 C87.415,489.849 78.049,495.468 78.049,504.834 C78.049,514.2 82.42,540.424 79.298,552.288 C76.176,564.151 66.185,585.38 68.683,602.239 C71.18,619.098 68.683,625.966 63.063,634.083 C57.444,642.2 53.073,656.561 43.707,667.176 C34.341,677.79 24.976,693.4 14.985,694.024 C4.995,694.649 6.868,694.649 7.493,699.644 C8.117,704.639 -0,717.481 -0,717.481 L-0,670.624 C-0,670.624 4.371,672.795 6.244,668.424 C8.117,664.054 6.244,660.307 8.117,654.063 C9.99,647.82 46.829,595.371 51.2,577.888 C55.571,560.405 57.444,547.917 53.698,529.185 C49.951,510.454 49.327,480.483 58.693,477.361 C68.059,474.239 73.054,473.615 73.678,476.737 C74.302,479.859 75.551,487.351 82.42,476.737 C89.288,466.122 91.161,461.127 100.527,461.127 C109.893,461.127 110.517,461.751 116.137,462.376 C121.756,463 119.259,459.254 126.751,456.132 C134.244,453.01 131.746,448.639 138.615,448.639 C145.483,448.639 146.732,446.766 148.605,443.02 C150.478,439.273 147.98,438.649 155.473,436.776 C162.966,434.902 166.712,439.273 169.834,433.654 C172.956,428.034 170.11,401.534 182.322,389.322 C186.693,384.951 225.097,380.04 234.146,382.454 C252.878,387.449 256.624,376.834 269.112,384.327 C281.6,391.82 270.361,395.566 279.727,399.312 C289.093,403.059 333.424,420.541 380.254,414.922 C427.083,409.302 520.741,351.859 520.741,351.859 C520.741,351.859 416.468,408.054 358.4,405.556 C300.332,403.059 282.224,389.946 269.737,365.595 C257.249,341.244 252.231,322.955 232.875,292.985 C213.519,263.014 159.844,191.39 157.971,188.893 C156.098,186.395 151.102,185.771 151.102,182.024 C151.102,178.278 154.849,173.283 154.849,168.912 C154.849,164.541 148.605,160.795 151.102,155.176 C153.6,149.556 167.961,133.322 177.951,127.702 C187.941,122.083 196.059,119.585 206.673,113.966 C217.288,108.346 220.41,102.727 232.898,96.483 C245.385,90.239 268.849,79 268.849,79 L589.707,27.242 z M661.926,276.039 C661.926,276.039 596.843,413.454 413.672,452.202 C329.114,470.089 300.077,441.186 278.705,425.642 C269.63,419.042 298.76,461.417 349.17,465.211 C371.627,466.901 423.996,460.34 453.783,450.576 C617.479,396.914 661.926,276.039 661.926,276.039 z" fill="#000000"/>
      <path d="M711.937,338.776 C712.239,338.906 712.309,339.091 712.429,339.371 C714.927,348.112 723.044,358.103 731.394,363.098 C739.745,368.093 739.902,356.854 740.527,349.361 C741.151,341.868 731.394,341.868 734.283,341.868 C737.171,341.868 745.522,336.873 761.132,363.722 C776.741,390.571 749.893,398.063 754.888,398.063 C759.883,398.063 779.863,408.678 776.741,408.054 C773.62,407.429 771.746,410.551 774.244,414.298 C776.741,418.044 771.746,435.527 766.751,443.644 C762.846,449.276 755.203,450.931 748.717,451.139 C753.739,451.199 754.858,453.303 753.639,458.005 C751.766,464.249 750.517,466.122 747.395,476.112 C744.273,486.103 747.395,490.473 744.273,492.346 C741.151,494.22 739.902,489.849 737.405,483.605 C734.907,477.361 731.394,472.366 736.78,463 C742.167,453.634 734.283,441.771 728.663,437.4 C723.044,433.029 722.419,426.161 721.171,422.415 C719.922,418.668 716.8,422.415 715.551,434.278 C714.302,446.142 731.394,452.385 728.663,454.883 C725.932,457.381 725.541,459.878 720.546,467.995 C715.551,476.112 710.556,487.976 707.434,497.966 C704.312,507.956 708.059,521.068 712.429,529.185 C716.8,537.302 723.668,527.937 731.394,519.195 C739.121,510.454 734.283,511.703 738.654,509.205 C743.024,506.707 751.141,503.585 751.141,509.829 C751.141,516.073 751.141,529.185 750.517,539.176 C749.893,549.166 736.156,563.527 740.527,561.654 C744.898,559.781 750.517,564.151 750.517,567.898 C750.517,571.644 744.898,576.639 741.151,577.888 C737.405,579.137 731.394,584.756 734.907,588.503 C738.42,592.249 738.654,595.371 731.394,604.737 C724.135,614.102 728.663,619.722 731.394,626.59 C734.126,633.459 768.624,617.849 766.751,620.346 C764.878,622.844 761.132,630.337 751.766,646.571 C742.4,662.805 742.672,676.687 745.794,682.931 C748.916,689.175 752.39,689.029 758.01,697.146 C763.629,705.263 758.01,691.527 756.137,687.156 C754.263,682.785 746.146,674.668 769.249,695.898 C792.351,717.127 811.083,715.254 837.932,729.615 C864.78,743.976 887.259,738.356 907.863,740.854 C928.468,743.351 947.2,743.351 965.307,753.342 C983.415,763.332 1024,778.213 1024,778.213 L1024,1103 L702.439,1103 C702.439,1103 691.824,1103 702.439,1083.644 C713.054,1064.288 715.551,1046.805 718.673,1038.688 C721.795,1030.571 723.668,1045.556 737.405,989.361 C751.141,933.166 757.385,866.981 762.38,858.863 C767.376,850.746 772.995,833.263 770.498,835.761 C768,838.259 763.629,840.756 765.502,838.259 C767.376,835.761 769.873,822.649 766.751,825.771 C763.629,828.893 742.4,856.99 742.4,856.99 C742.4,856.99 744.898,851.995 749.893,809.537 C754.888,767.078 744.273,741.478 743.649,737.732 C743.024,733.985 739.278,718.376 736.156,724.62 C733.034,730.863 718.049,745.224 718.049,745.224 C718.049,745.224 721.171,745.849 721.171,750.22 C721.171,754.59 716.8,761.459 714.927,766.454 C713.054,771.449 718.049,774.571 716.8,780.815 C715.551,787.059 713.054,793.302 712.429,800.171 C711.805,807.039 711.805,808.912 706.185,800.171 C700.566,791.429 701.19,800.171 696.195,793.927 C691.2,787.683 693.073,791.429 689.327,796.424 C685.581,801.42 681.834,807.663 679.961,812.034 C678.088,816.405 682.458,817.029 681.21,822.024 C679.961,827.02 676.215,820.776 676.215,823.898 C676.215,827.02 678.088,835.761 686.205,843.878 C689.206,846.823 693.098,848.615 697.101,849.752 C696.069,850.875 696.58,850.336 695.571,851.371 C691.2,855.742 698.068,858.239 693.073,858.239 C688.078,858.239 689.951,855.742 673.717,866.356 C657.483,876.971 647.493,872.6 638.751,875.722 C630.01,878.844 641.249,894.454 634.38,890.707 C627.512,886.961 621.893,888.834 614.4,890.083 C606.907,891.332 597.541,895.703 592.546,898.824 C589.576,900.922 600.102,904.075 601.964,904.768 C599.783,905.868 591.788,906.509 590.049,908.19 C576.937,921.302 569.444,933.166 565.073,950.024 C560.702,966.883 563.824,984.99 566.322,984.366 C568.82,983.742 569.444,984.99 571.317,989.985 C573.19,994.981 576.937,997.478 580.683,1001.849 C584.429,1006.22 578.185,1008.093 573.815,1020.581 C569.444,1033.068 566.946,1041.81 570.693,1054.922 C574.439,1068.034 572.566,1103 572.566,1103 L-0,1103 L-0,974.435 C0,974.435 -0,970.005 11.239,965.634 C22.478,961.263 34.341,955.02 40.585,950.649 C46.829,946.278 53.073,939.41 51.2,930.668 C49.327,921.927 41.834,930.668 67.434,908.815 C93.034,886.961 96.156,845.751 95.532,849.498 C94.907,853.244 92.41,853.244 88.039,860.737 C83.668,868.229 81.795,873.849 74.927,881.342 C68.059,888.834 56.195,900.073 48.702,900.073 C41.21,900.073 36.839,900.698 33.093,907.566 C29.346,914.434 36.839,913.185 41.834,916.307 C46.829,919.429 56.819,915.059 50.576,918.181 C44.332,921.302 46.205,924.424 41.21,925.673 C36.215,926.922 31.844,925.673 21.854,919.429 C11.863,913.185 -0,895.703 -0,895.703 L-0,859.684 C-1.238,858.793 -0.619,859.206 -0,859.554 C4.086,864.505 3.329,861.637 4.995,862.61 C19.98,871.351 22.478,858.239 25.6,850.122 C28.722,842.005 64.312,774.571 75.551,758.961 C86.79,743.351 86.166,748.346 91.785,748.971 C97.405,749.595 108.02,738.356 111.766,734.61 C115.512,730.863 114.888,728.99 121.132,727.742 C127.376,726.493 131.122,723.995 138.615,718.376 C146.107,712.756 146.107,718.376 152.351,718.376 C158.595,718.376 153.6,714.005 148.605,708.385 C143.61,702.766 137.99,705.263 128.624,709.634 C119.259,714.005 121.132,709.01 119.883,707.137 C118.634,705.263 118.634,704.015 116.137,700.268 C113.639,696.522 121.756,692.776 124.878,690.903 C124.878,690.903 131.746,690.278 134.244,688.405 C136.741,686.532 134.244,679.039 134.244,661.556 C134.244,644.073 130.498,620.971 129.249,610.981 C128,600.99 126.127,589.751 126.127,579.137 C126.127,568.522 126.127,564.776 139.863,564.776 C153.6,564.776 149.854,554.785 147.98,550.415 C146.107,546.044 152.976,549.166 161.093,551.039 C169.21,552.912 169.834,550.415 176.702,552.288 C183.571,554.161 183.571,552.288 191.063,563.527 C198.556,574.766 199.805,574.142 204.176,571.644 C208.546,569.146 212.917,571.644 213.541,581.634 C214.166,591.624 211.668,585.381 217.288,594.746 C222.907,604.112 219.785,602.239 214.166,604.737 C208.546,607.234 209.171,604.737 206.049,600.99 C202.927,597.244 200.429,602.863 192.312,604.112 C184.195,605.361 180.449,610.981 180.449,617.224 C180.449,623.468 178.576,624.717 171.083,642.2 C163.59,659.683 169.21,669.673 167.961,678.415 C166.712,687.156 161.093,681.537 158.595,694.024 C156.098,706.512 156.722,725.868 158.595,718.376 C160.468,710.883 164.839,710.883 174.205,705.888 C183.571,700.893 190.439,696.522 194.185,699.644 C197.932,702.766 207.922,694.649 213.541,681.537 C219.161,668.424 230.887,646.497 227.14,640.878 C225.158,637.905 218.895,626.714 219.354,624.316 C219.764,622.181 223.023,624.606 234.786,624.312 C259.762,623.687 257.249,612.854 258.498,606.61 C259.746,600.366 251.629,589.127 251.629,584.756 C251.629,580.385 239.141,559.156 236.02,551.663 C232.898,544.171 231.649,544.171 224.78,544.795 C217.912,545.42 214.79,534.805 208.546,527.312 C202.302,519.82 199.805,521.693 203.551,514.824 C207.298,507.956 204.176,507.956 192.312,509.829 C180.449,511.703 177.951,507.956 164.839,502.961 C151.727,497.966 154.224,497.966 141.112,492.346 C128,486.727 116.761,486.103 119.259,486.103 C121.756,486.103 127.376,485.478 137.366,485.478 C147.356,485.478 161.093,484.854 179.824,497.342 C198.556,509.829 206.673,499.839 210.419,509.205 C214.166,518.571 220.41,525.439 233.522,534.181 C246.634,542.922 240.39,544.171 252.254,568.522 C264.117,592.873 279.727,609.107 287.22,612.229 C294.712,615.351 300.956,611.605 304.702,606.61 C308.449,601.615 307.824,597.244 300.956,595.995 C294.088,594.746 295.337,585.381 293.463,580.385 C291.59,575.39 284.098,556.659 280.351,556.659 C276.605,556.659 266.615,530.434 262.868,525.439 C259.122,520.444 246.634,516.073 239.141,509.829 C231.649,503.585 237.268,496.093 232.273,488.6 C227.278,481.107 219.785,482.981 209.795,477.361 C199.805,471.742 171.083,467.371 176.078,467.371 C181.073,467.371 199.805,471.742 207.298,472.366 C214.79,472.99 241.639,471.117 249.132,490.473 C256.624,509.829 299.083,558.532 299.707,564.151 C300.332,569.771 312.819,571.02 323.434,569.146 C334.049,567.273 335.298,576.015 345.288,587.878 C355.278,599.742 362.146,619.098 366.517,624.717 C370.888,630.337 378.38,635.956 385.249,644.698 C392.117,653.439 392.117,655.312 393.366,648.444 C394.615,641.576 404.605,645.322 409.6,652.19 C414.595,659.059 419.59,649.693 438.322,652.815 C457.054,655.937 456.429,674.044 462.673,677.166 C468.917,680.288 467.044,671.546 461.424,689.029 C455.805,706.512 463.922,718.376 463.922,712.756 C463.922,707.137 464.546,701.517 465.171,692.151 C465.795,682.785 472.663,673.42 477.034,677.79 C481.405,682.161 481.405,682.785 478.907,695.273 C476.41,707.761 487.024,689.654 491.395,682.785 C495.766,675.917 482.654,677.166 501.385,677.79 C520.117,678.415 513.249,677.79 515.746,674.044 C518.244,670.298 507.005,670.298 499.512,667.176 C492.02,664.054 495.766,659.059 498.888,661.556 C502.01,664.054 508.254,664.054 516.371,664.054 C524.488,664.054 528.859,670.922 540.098,675.917 C551.337,680.912 556.956,659.683 565.698,652.19 C568.49,649.857 571.503,647.733 574.761,646.095 C573.014,644.965 571.258,643.848 569.444,642.824 C561.327,638.454 557.581,629.088 550.712,619.722 C543.844,610.356 539.473,596.62 535.727,592.873 C531.98,589.127 537.6,589.751 539.473,585.381 C541.346,581.01 538.224,576.639 534.478,566.649 C530.732,556.659 527.61,554.161 524.488,544.795 C521.366,535.429 531.356,517.946 531.356,514.824 C531.356,511.703 526.361,508.581 525.737,505.459 C525.112,502.337 531.356,499.839 528.234,496.717 C525.112,493.595 518.244,489.224 518.244,489.224 L636.878,405.556 C636.878,405.556 638.751,414.922 639.376,421.166 C640,427.41 646.244,423.039 649.366,431.156 C652.488,439.273 654.985,439.273 649.366,438.024 C643.746,436.776 643.746,436.151 641.873,439.273 C640,442.395 632.507,443.644 627.512,443.02 C622.517,442.395 625.639,436.151 621.268,441.771 C616.898,447.39 606.907,451.761 611.902,451.137 C616.898,450.512 628.137,451.137 640.624,453.634 C653.112,456.132 652.488,481.107 648.117,481.107 C643.746,481.107 641.873,482.356 633.756,492.346 C629.064,498.121 623.295,503.374 620.272,502.613 C618.065,502.057 618.215,496.591 616.898,494.22 C613.776,488.6 613.776,492.346 620.02,476.737 C624.47,465.27 609.997,464.172 602.322,464.818 C603.385,465.826 603.987,468.417 604.41,469.868 C606.907,478.61 608.803,491.144 593.511,496.878 C577.267,502.97 570.068,486.103 566.946,487.976 C563.824,489.849 560.702,492.971 559.454,498.59 C558.205,504.21 559.454,504.21 577.561,506.083 C595.668,507.956 595.044,521.068 590.049,521.068 C585.054,521.068 581.307,521.068 578.81,524.815 C576.312,528.561 583.805,531.683 583.805,534.805 C583.805,537.927 577.561,535.429 570.693,538.551 C563.824,541.673 559.454,545.42 561.327,546.044 C563.2,546.668 568.195,544.171 568.195,551.039 C568.195,557.907 561.951,544.795 566.322,576.015 C570.693,607.234 576.937,614.102 578.81,609.107 C580.683,604.112 587.551,600.99 589.424,604.737 C591.298,608.483 591.298,612.854 599.415,615.976 C607.532,619.098 606.907,632.834 609.405,631.585 C611.902,630.337 611.902,630.961 616.898,633.459 C621.893,635.956 615.649,637.829 611.278,642.2 C606.907,646.571 612.527,645.946 616.898,647.195 C621.268,648.444 623.766,656.561 625.015,653.439 C626.263,650.317 630.01,642.824 630.634,642.824 C630.905,642.824 629.746,636.034 626.644,630.046 C622.599,622.237 616.524,614.899 618.998,616.666 C621.419,618.395 636.343,621.928 643.847,630.683 C647.671,635.143 651.612,638.502 653.405,640.878 C656.445,644.906 656.591,651.695 656.591,653.621 C656.532,657.35 656.417,661.095 655.964,664.8 C657.168,662.405 660.624,661.377 662.849,663.006 C663.622,663.572 664.026,664.443 664.351,665.302 C666.224,670.922 669.971,657.81 667.473,654.063 C664.976,650.317 671.219,645.322 659.98,637.205 C648.741,629.088 651.863,619.722 648.117,615.976 C644.371,612.229 646.868,607.234 649.366,602.863 C651.863,598.493 653.737,590.376 653.737,584.132 C653.737,577.888 653.737,579.137 659.98,567.273 C666.224,555.41 672.468,551.039 673.717,544.171 C674.966,537.302 673.717,533.556 674.966,537.927 C676.215,542.298 681.21,549.166 679.961,544.795 C678.712,540.424 680.585,536.054 681.834,540.424 C683.083,544.795 685.581,551.663 686.829,547.917 C688.078,544.171 688.078,541.673 688.078,534.805 C688.078,527.937 686.205,524.815 685.581,517.946 C684.956,511.078 681.834,512.327 680.585,503.585 C679.337,494.844 688.702,485.478 689.327,479.234 C689.951,472.99 686.205,461.751 686.205,455.507 C686.205,449.263 695.571,446.142 690.576,446.142 C685.581,446.142 680.585,441.771 668.098,432.405 C655.61,423.039 654.361,409.302 653.737,404.307 C655.996,397.844 661.268,392.053 665.445,386.711 C673.262,376.712 681.421,366.962 689.983,357.59 C694.729,352.338 699.46,347.029 704.906,342.481 C706.91,340.721 709.079,339.171 711.731,338.637 L711.937,338.776 z M427.131,818.145 C425.921,818.205 425.257,818.103 424.164,818.625 C420.702,820.28 421.727,826.899 421.904,829.826 C422.168,834.192 422.355,838.489 422.113,842.86 C420.839,858.152 429.759,864.524 429.759,875.993 C429.759,887.462 430.397,930.152 446.326,977.939 C455.432,1005.071 467.061,1031.261 478.984,1057.249 C481.664,1063.088 488.617,1076.393 490.072,1082.759 C490.073,1082.813 490.096,1083.827 490.108,1083.072 C490.086,1082.804 490.106,1082.907 490.072,1082.759 C490.164,1059.423 493.483,1035.19 504.308,1014.258 C520.237,984.948 522.149,978.577 529.795,972.205 C537.441,965.833 550.184,953.09 537.441,934.612 C524.697,916.134 521.511,914.223 513.865,922.506 C506.219,930.789 495.388,923.619 504.308,918.046 C513.228,912.473 511.954,908.43 506.219,901.769 C500.485,895.108 501.759,895.745 508.131,895.745 C514.503,895.745 483.919,874.718 479.458,867.072 C479.028,866.401 478.4,865.4 477.426,865.711 C475.578,866.3 474.629,870.218 474.237,871.58 C472.743,876.775 471.847,882.158 471.327,887.534 C471.21,886.091 471.161,881.182 468.627,881.727 C466.45,882.53 465.34,884.548 464.431,886.536 C465.456,882.655 465.925,879.107 464.684,875.198 C464.56,874.807 464.339,874.453 464.166,874.081 C460.981,868.347 453.972,863.534 451.423,848.418 C448.874,833.302 443.777,821.833 430.397,818.648 C428.52,818.249 429.604,818.442 427.131,818.145 z M561.016,791.249 L555.918,797.621 L554.644,825.656 L564.839,826.931 L561.016,791.249 z M541.901,805.267 L535.529,815.462 L540.626,825.656 L541.901,805.267 z M310.591,584.866 L310.59,584.866 C310.454,584.921 310.278,584.921 310.181,585.032 C309.88,585.373 309.982,586.126 310.036,586.46 C310.17,587.3 310.367,587.856 310.609,588.63 C313.795,598.188 324.627,625.586 309.335,622.4 C294.043,619.214 286.397,621.763 275.565,623.037 C264.733,624.312 260.273,633.869 255.813,642.152 C251.353,650.435 245.618,669.55 231.6,686.117 C217.583,702.683 205.477,712.404 195.919,718.376 C186.361,724.347 165.335,739.002 159.6,739.002 C153.866,739.002 138.574,761.303 130.928,774.683 C123.282,788.064 106.716,814.825 106.716,814.825 C113.724,816.099 130.234,815.695 146.857,813.55 C186.361,808.453 193.37,794.435 213.76,791.249 C234.149,788.064 227.14,796.984 238.609,796.984 C250.078,796.984 281.454,777.667 290.857,775.957 C318.892,770.86 325.901,784.241 333.547,778.506 C341.193,772.772 350.751,760.665 357.759,757.48 C364.768,754.294 366.68,757.48 374.326,757.48 C381.972,757.48 383.246,750.471 377.512,749.196 C371.777,747.922 386.666,746.381 378.149,738.365 C367.317,728.17 367.317,706.506 362.22,703.32 C359.638,701.662 356.277,702.624 356.77,706.161 C356.971,707.605 357.403,707.876 358.252,709.025 C353.573,704.967 348.976,698.998 350.751,692.489 C354.125,682.294 362.857,679.108 360.308,668.276 C357.759,657.444 359.034,659.356 350.751,659.356 C342.467,659.356 337.37,653.621 337.37,656.17 C337.37,658.719 334.821,663.179 334.184,647.887 L334.101,646.795 C336.648,644.587 337.013,640.847 337.37,637.692 C338.644,624.949 329.724,638.329 328.45,629.409 C327.175,620.489 329.724,603.922 323.352,596.913 C320.451,593.744 317.618,590.502 314.494,587.547 C313.375,586.488 312.13,585.255 310.591,584.866 z M359.105,709.743 L359.105,709.744 L359.105,709.744 L359.105,709.744 C359.311,709.859 360.133,710.532 359.426,710.002 C359.318,709.917 359.212,709.83 359.105,709.744 L359.105,709.744 L359.105,709.744 L359.105,709.743 L359.105,709.743 z M358.749,709.454 L358.75,709.455 L358.751,709.455 L358.753,709.457 L358.854,709.542 C358.785,709.486 358.819,709.514 358.753,709.457 L358.751,709.455 L358.75,709.455 L358.749,709.454 L358.749,709.454 z M609.667,698.902 L609.667,698.902 C603.058,699.8 597.056,703.514 591.6,707.143 C581.405,714.152 575.033,721.798 571.848,727.533 C568.662,733.267 566.113,723.073 559.741,721.798 C553.37,720.524 552.733,726.896 552.095,725.621 C551.458,724.347 539.352,724.347 536.803,724.347 C534.255,724.347 531.069,730.081 524.697,733.904 C518.326,737.727 514.503,731.356 511.317,735.179 C508.131,739.002 500.485,740.913 500.485,740.913 C500.485,740.913 499.848,744.099 497.936,759.391 C496.025,774.683 500.485,782.966 513.228,775.957 C525.972,768.949 524.697,770.223 524.697,788.064 C524.697,805.904 527.246,802.081 532.98,796.347 C538.715,790.612 538.715,781.055 539.352,777.232 C539.989,773.409 548.272,764.488 548.272,762.577 C548.272,760.665 545.724,754.294 546.361,748.559 C546.998,742.825 552.733,742.825 561.653,742.188 C570.573,741.55 578.856,735.179 583.954,733.904 C589.051,732.63 606.892,743.462 599.883,741.55 C592.874,739.639 587.777,742.825 592.237,742.825 C596.697,742.825 600.52,745.373 611.828,753.657 C623.136,761.94 638.75,772.772 635.564,768.949 C632.379,765.126 627.918,754.931 621.547,747.285 C615.175,739.639 608.803,730.719 605.617,726.896 C602.432,723.073 611.828,725.621 625.37,734.542 C638.911,743.462 650.856,755.568 649.582,753.019 C648.308,750.471 646.396,744.736 641.936,732.63 C637.476,720.524 622.184,712.241 617.086,712.241 C611.989,712.241 611.828,703.32 611.828,700.134 C611.768,698.965 610.565,698.934 609.667,698.902 z M455.246,749.833 L449.511,757.48 L455.883,770.86 C455.883,770.86 453.972,763.214 453.972,758.117 C453.972,753.019 455.246,749.834 455.246,749.834 z M656.686,700.728 L656.686,700.728 C656.526,700.767 656.34,700.747 656.207,700.844 C655.449,701.392 654.413,705.703 653.799,706.898 C652.268,709.872 649.428,710.339 646.396,709.692 C646.396,709.692 663.6,725.621 664.237,729.444 C664.874,733.267 666.786,716.701 659.777,704.595 C658.912,703.179 658.164,701.579 656.686,700.728 z M591.226,623.735 L591.225,623.735 C591.108,623.81 590.956,623.849 590.872,623.961 C590.456,624.518 590.271,625.317 590.049,625.966 C588.176,631.585 584.429,628.464 580.059,639.078 C579.252,640.893 578.65,642.804 577.765,644.584 C582.949,642.143 588.397,640.349 593.795,638.454 C602.537,635.332 595.044,634.083 593.171,630.337 C592.005,628.53 592.196,625.431 591.226,623.735 z M601.353,464.916 L601.353,464.916 C600.813,464.992 600.031,465.07 599.496,465.258 C599.095,465.399 599.261,465.426 599.415,465.498 C600.165,465.692 600.752,465.296 601.353,464.916 z" fill="#000000"/>
      <path d="M610.364,901.769 C610.637,901.807 610.926,901.784 611.182,901.885 C612.339,902.339 611.666,903.709 611.278,904.444 C609.405,907.566 608.781,914.434 605.659,911.937 C603.748,909.962 603.61,906.927 601.964,904.767 C597.485,902.686 599.682,902.229 601.234,903.809 C603.266,904.863 604.561,904.497 605.659,903.819 C607.159,902.707 608.537,902.077 610.364,901.769 z" fill="#000000"/>
      <path d="M699.057,848.44 C700.787,849.075 702.531,849.647 704.312,850.122 C704.746,850.297 705.901,850.395 706.126,850.839 C706.255,851.094 705.369,851.159 704.58,851.136 C702.021,851.062 699.55,850.447 697.101,849.752 C697.562,849.339 697.894,848.642 698.521,848.443 C698.691,848.389 698.878,848.441 699.057,848.44 z" fill="#000000"/>
      <path d="M378.149,524.914 C371.14,530.011 330.998,556.135 373.051,568.241 C380.873,570.493 387.552,573.932 392.167,574.613 C412.362,577.593 404.925,564.67 396.627,557.409 C386.432,548.489 388.344,530.011 403.636,545.94 C411.022,553.634 418.915,553.585 424.025,551.674 C429.494,549.63 434.506,544.575 435.494,537.657 C436.262,532.278 435.409,528.772 437.41,526.112 C440.386,522.156 444.04,521.484 446.326,524.914 C450.149,530.648 452.697,538.294 447.6,545.94 C442.503,553.586 438.043,560.595 436.131,563.144 C434.22,565.692 443.777,557.409 446.326,554.86 C448.874,552.312 444.414,565.692 457.158,563.781 C469.901,561.869 473.087,562.506 474.998,565.692 C476.91,568.878 478.184,562.506 481.37,558.046 C484.556,553.586 497.299,540.843 484.556,526.188 C471.812,511.533 477.547,522.365 475.635,516.63 C473.724,510.896 471.175,509.621 475.635,500.701 C480.096,491.781 378.149,524.914 378.149,524.914 z" fill="#000000"/>
      <path d="M151.102,155.176 C151.102,155.176 185.439,111.59 333.742,45.015 C503.062,-30.995 583.315,8.066 589.707,27.242 C601.359,62.197 565.56,83.349 537.862,93.292 C505.005,105.086 239.576,193.419 203.417,182.12 C167.257,170.82 151.102,155.176 151.102,155.176 z" fill="#000000"/>
    </g>
  </g>
</svg>
